<?xml version="1.0" encoding="UTF-8" standalone="no"?>
<!-- Created with Inkscape (http://www.inkscape.org/) -->

<svg
   width="59.999996mm"
   height="60.000004mm"
   viewBox="0 0 59.999996 60.000004"
   version="1.1"
   id="svg1"
   xmlns="http://www.w3.org/2000/svg"
   xmlns:svg="http://www.w3.org/2000/svg">
  <defs
     id="defs1" />
  <g
     id="layer1"
     transform="translate(-5.0000043,-135)">
    <g
       id="g34"
       transform="translate(-130,65.000003)">
      <rect
         style="fill:#fffaea;fill-opacity:1;stroke:#eee8d2;stroke-width:2.95069;stroke-dasharray:none;stroke-opacity:1"
         id="rect26"
         width="57.049309"
         height="57.049309"
         x="-193.52466"
         y="71.475342"
         rx="9.5082188"
         ry="9.5082188"
         transform="scale(-1,1)" />
      <g
         id="g33">
        <path
           id="path26"
           style="fill:#311f16;stroke-width:2"
           d="M 150.00015,84.99998 152.5,105 l 2.49984,20.00012 h 20.00033 L 177.50002,105 179.99987,84.99998 Z" />
        <path
           id="path27"
           style="fill:#fffaea;fill-opacity:1;stroke-width:1.79999"
           d="m 151.5,87 2.24986,17.99996 L 155.99971,123 h 18.00023 L 176.2498,104.99996 178.49965,87 Z" />
        <path
           id="path28"
           style="fill:#311f16;stroke-width:2"
           d="m 164.3096,78.351944 c 0,1.24264 2.68304,2.15845 1.4404,2.15845 -1.24264,0 -2.25,-1.007359 -2.25,-2.25 0,-1.242641 0.9587,-2.147989 2.19633,-2.259471 0.24533,-0.0221 -0.39415,0.357382 -0.62746,0.61977 -0.40459,0.455011 -0.75927,0.737094 -0.75927,1.731251 z" />
        <path
           id="path29"
           style="fill:#311f16;stroke-width:2"
           d="m 165.74765,81.670969 c 0,-1.24264 -2.68304,-2.15845 -1.4404,-2.15845 1.24264,0 2.25,1.007359 2.25,2.25 0,1.242641 -0.9587,2.147989 -2.19633,2.259471 -0.24533,0.0221 0.39415,-0.357382 0.62746,-0.61977 0.40459,-0.455011 0.75927,-0.737094 0.75927,-1.731251 z" />
        <path
           id="path30"
           style="fill:#311f16;stroke-width:2"
           d="m 169.3096,78.351944 c 0,1.24264 2.68304,2.15845 1.4404,2.15845 -1.24264,0 -2.25,-1.007359 -2.25,-2.25 0,-1.242641 0.9587,-2.147989 2.19633,-2.259471 0.24533,-0.0221 -0.39415,0.357382 -0.62746,0.61977 -0.40459,0.455011 -0.75927,0.737094 -0.75927,1.731251 z" />
        <path
           id="path31"
           style="fill:#311f16;stroke-width:2"
           d="m 170.74765,81.670969 c 0,-1.24264 -2.68304,-2.15845 -1.4404,-2.15845 1.24264,0 2.25,1.007359 2.25,2.25 0,1.242641 -0.9587,2.147989 -2.19633,2.259471 -0.24533,0.0221 0.39415,-0.357382 0.62746,-0.61977 0.40459,-0.455011 0.75927,-0.737094 0.75927,-1.731251 z" />
        <path
           id="path32"
           style="fill:#311f16;stroke-width:2"
           d="m 159.3096,78.351944 c 0,1.24264 2.68304,2.15845 1.4404,2.15845 -1.24264,0 -2.25,-1.007359 -2.25,-2.25 0,-1.242641 0.9587,-2.147989 2.19633,-2.259471 0.24533,-0.0221 -0.39415,0.357382 -0.62746,0.61977 -0.40459,0.455011 -0.75927,0.737094 -0.75927,1.731251 z" />
        <path
           id="path33"
           style="fill:#311f16;stroke-width:2"
           d="m 160.74765,81.670969 c 0,-1.24264 -2.68304,-2.15845 -1.4404,-2.15845 1.24264,0 2.25,1.007359 2.25,2.25 0,1.242641 -0.9587,2.147989 -2.19633,2.259471 -0.24533,0.0221 0.39415,-0.357382 0.62746,-0.61977 0.40459,-0.455011 0.75927,-0.737094 0.75927,-1.731251 z" />
      </g>
    </g>
  </g>
</svg>
